# xmcd
#
# Track frame offsets:
#	150
#	16645
#	32989
#	50503
#	68048
#	79230
#	93921
#	110584
#	131926
#	153090
#	172976
#	192041
#	207376
#	226357
#	245628
#	265650
#	280791
#	297535
#	315599
#
# Disc length: 4387 seconds
#
# Revision: 1
# Processed by: cddbd v1.5.2PL0 Copyright (c) Steve Scherf et al.
# Submitted via: audiograbber 1.83.01
#
DISCID=09112113
DTITLE=Various Artist - Country Nights CD2
DYEAR=1990
DGENRE=Country
TTITLE0=Alan Jackson - Here in the real world
TTITLE1=Conway Twitty  - I want to know you before we make love
TTITLE2=Earl thomas Conley - What I'd say
TTITLE3=Eddie Rabbitt and Juice Newton - Both to each other (Friends and Lovers)
TTITLE4=Eddy Raven - I got Mexico
TTITLE5=Forester Sisters - I fell in love again last night
TTITLE6=Garth Brooks - If tomorrow never comes
TTITLE7=Gary Moris - The wind beneath my wings
TTITLE8=KT Oslin - Hold Me
TTITLE9=Katyh Mattea - Goin' Gone
TTITLE10=Keith Whitley - Don't close your eyes
TTITLE11=Lee Greenwood - I don't mind the thorns (if you're the rose)
TTITLE12=Patty Loveless - Don't toss us away
TTITLE13=Restless Heart - I'll still be loving you
TTITLE14=Rodney Crowell - After all this time
TTITLE15=Roseanne Cash and Rodney Crowell - It's such a small world
TTITLE16=Shenandoah - Two dozen roses
TTITLE17=Vern Gosdin - That just about does it
TTITLE18=Waylon Jennings - Drinkin' and dreamin'
EXTD=
EXTT0=
EXTT1=
EXTT2=
EXTT3=
EXTT4=
EXTT5=
EXTT6=
EXTT7=
EXTT8=
EXTT9=
EXTT10=
EXTT11=
EXTT12=
EXTT13=
EXTT14=
EXTT15=
EXTT16=
EXTT17=
EXTT18=
PLAYORDER=
